<?xml version="1.0" standalone="no"?><!DOCTYPE svg PUBLIC "-//W3C//DTD SVG 1.1//EN" "http://www.w3.org/Graphics/SVG/1.1/DTD/svg11.dtd"><svg t="1590473341033" class="icon" viewBox="0 0 1024 1024" version="1.1" xmlns="http://www.w3.org/2000/svg" p-id="4581" xmlns:xlink="http://www.w3.org/1999/xlink" width="200" height="200"><defs><style type="text/css"></style></defs><path d="M1016.56 441.75L785.88 103.94a42.602 42.602 0 0 0-35.23-18.6h-477.3a42.64 42.64 0 0 0-35.23 18.6L7.44 441.75c-11.54 16.9-9.46 39.6 4.94 54.12l469.33 472.85c8.02 8.06 18.92 12.6 30.29 12.6s22.27-4.54 30.29-12.6l469.33-472.85c14.4-14.52 16.48-37.22 4.94-54.12zM512 878.1L97.77 460.77l198.1-290.1h432.25l198.1 290.1L512 878.1z" fill="#ffffff" p-id="4582"></path><path d="M692.1 320.06c-20.1-12.4-46.38-6.1-58.69 13.98L512 531.46 390.58 334.04c-12.33-20.08-38.6-26.38-58.69-13.98-20.06 12.33-26.33 38.6-13.98 58.69l157.75 256.5c7.75 12.62 21.52 20.31 36.33 20.31s28.58-7.69 36.33-20.31l157.75-256.5c12.37-20.08 6.1-46.35-13.97-58.69z" fill="#ffffff" p-id="4583"></path></svg>