<?xml version="1.0" standalone="no"?><!DOCTYPE svg PUBLIC "-//W3C//DTD SVG 1.1//EN" "http://www.w3.org/Graphics/SVG/1.1/DTD/svg11.dtd"><svg t="1590473250563" class="icon" viewBox="0 0 1024 1024" version="1.1" xmlns="http://www.w3.org/2000/svg" p-id="4027" xmlns:xlink="http://www.w3.org/1999/xlink" width="200" height="200"><defs><style type="text/css"></style></defs><path d="M512 842.7c-31.7 0-61.9-13.6-82.9-37.3L176.8 520.5c-33.5-37.8-37.1-93.5-8.8-135.4L272.8 230c20.6-30.5 54.9-48.7 91.7-48.7h294.9c36.8 0 71.1 18.2 91.7 48.7L856 385.1c28.3 41.9 24.7 97.6-8.8 135.4L594.9 805.4c-21 23.7-51.2 37.3-82.9 37.3z m-38-77.1c9.8 11 23.2 17.1 38 17.1s28.2-6.1 38-17.1l252.3-284.9c15.3-17.3 17-42.8 4-62L701.5 263.6c-9.4-14-25.1-22.3-42-22.3h-295c-16.9 0-32.6 8.3-42 22.3L217.7 418.7c-13 19.2-11.3 44.7 4 62L474 765.6z" p-id="4028" fill="#ffffff"></path><path d="M512 697.3c-25.1 0-49.1-10.8-65.8-29.6l-181-204.4c-11-12.4-9.8-31.4 2.6-42.3 12.4-11 31.4-9.8 42.3 2.6l181 204.4c5.4 6.1 12.8 9.4 20.9 9.4s15.5-3.3 20.9-9.4l181-204.4c11-12.4 29.9-13.6 42.3-2.6 12.4 11 13.6 29.9 2.6 42.3l-181 204.4c-16.7 18.8-40.7 29.6-65.8 29.6z" p-id="4029" fill="#ffffff"></path></svg>