<?xml version="1.0" standalone="no"?><!DOCTYPE svg PUBLIC "-//W3C//DTD SVG 1.1//EN" "http://www.w3.org/Graphics/SVG/1.1/DTD/svg11.dtd"><svg t="1590473322128" class="icon" viewBox="0 0 1024 1024" version="1.1" xmlns="http://www.w3.org/2000/svg" p-id="4391" xmlns:xlink="http://www.w3.org/1999/xlink" width="200" height="200"><defs><style type="text/css"></style></defs><path d="M375.36 579.264L147.84 533.888 263.744 870.4h500.864l115.904-336.512-227.84 45.44-137.728-286.784-139.52 286.72z m166.4-361.216c6.4-7.04 9.92-16.192 9.92-26.048 0-21.184-16.832-38.4-37.504-38.4a37.952 37.952 0 0 0-37.44 38.4 38.4 38.4 0 0 0 9.856 26.048l0.512 0.512 27.264 29.76 27.328-30.272zM389.184 192c0-70.72 55.936-128 124.928-128 68.992 0 124.928 57.28 124.928 128a129.28 129.28 0 0 1-33.28 86.912l95.744 199.424 248-49.472 42.496 50.432L823.68 960H204.416L36.352 479.36l42.496-50.56 247.936 49.536 96.64-198.4A129.28 129.28 0 0 1 389.248 192z m-62.464 588.8v-89.6h374.784v89.6H326.784z" fill="#ffffff" p-id="4392"></path></svg>